# xmcd
#
# Track frame offsets:
#	150
#	16500
#	32100
#	51300
#	64425
#	79575
#	97200
#	108225
#	121725
#	140625
#	159075
#	175800
#	189375
#	204900
#	222450
#	239400
#	255750
#
# Disc length: 3430 seconds
#
# Revision: 1
# Processed by: cddbd v1.5.1PL2 Copyright (c) Steve Scherf et al.
# Submitted via: audiograbber 1.83.01
#
DISCID=e00d6411
DTITLE=Big Country - BCY-008
DYEAR=2006
DGENRE=Karaoke
TTITLE0=McGraw, Tim - My Little Girl
TTITLE1=Evans, Sara - Coalmine
TTITLE2=Keith, Toby - It's A Little Too Late
TTITLE3=Sugarland - Down In Mississippi (Up To No Good)
TTITLE4=Chesney, Kenny - Summertime
TTITLE5=Dixie Chicks, The - Not Ready To Make Nice
TTITLE6=Hill, Faith - Dearly Beloved
TTITLE7=Wilson, Gretchen - California Girls
TTITLE8=Strait, George - Seashores Of Old Mexico
TTITLE9=Little Big Town - Bring It On Home
TTITLE10=Bentley, Dierks - Settle For A Slowdown
TTITLE11=Mullins, Megan - Ain't What It Used To Be
TTITLE12=Allan, Gary - Life Ain't Always Beautiful
TTITLE13=Vassar, Phil - Last Day Of My Life
TTITLE14=Church, Eric - How 'Bout You
TTITLE15=McGraw, Tim - My Little Girl (w/Vocals)
TTITLE16=data track - data track
EXTD=
EXTT0=
EXTT1=
EXTT2=
EXTT3=
EXTT4=
EXTT5=
EXTT6=
EXTT7=
EXTT8=
EXTT9=
EXTT10=
EXTT11=
EXTT12=
EXTT13=
EXTT14=
EXTT15=
EXTT16=
PLAYORDER=
